{"title":"All hail king Julien S01E05 PL.PAL.Xvid.avi","uid":13495885,"size":414507480,"categoryP":"video","categoryS":"tv_shows","magnet":"?xt=urn:btih:8f92de7ad825d5a04612a18f344136f49885c9ce&amp;dn=All+hail+king+Julien+S01E05+PL.PAL.Xvid.avi&amp;tr=udp%3A%2F%2Ftracker.leechers-paradise.org%3A6969&amp;tr=udp%3A%2F%2Fzer0day.ch%3A1337&amp;tr=udp%3A%2F%2Fopen.demonii.com%3A1337&amp;tr=udp%3A%2F%2Ftracker.coppersurfer.tk%3A6969&amp;tr=udp%3A%2F%2Fexodus.desync.com%3A6969","seeders":0,"leechers":0,"uploader":"Jan100000","files":1,"time":1455151449,"description":"Video\r\nID                          : 0\r\nFormat                      : MPEG-4 Visual\r\nFormat profile              : Advanced   \r\nFormat settings, BVOP       : 2\r\nFormat settings, QPel       : Yes\r\nFormat settings, GMC        : No warppoints\r\nFormat settings, Matrix     : Default (H.263)\r\nMuxing mode                 : Packed bitstream\r\nCodec ID                    : XVID\r\nCodec ID/Hint               : XviD\r\nDuration                    : 22mn 1s\r\nBit rate                    : 2 274 Kbps\r\nWidth                       : 720 pixels\r\nHeight                      : 540 pixels\r\nDisplay aspect ratio        : 4:3\r\nFrame rate                  : 23.976 fps\r\nColor space                 : YUV\r\nChroma subsampling          : 4:2:0\r\nBit depth                   : 8 bits\r\nScan type                   : Progressive\r\nCompression mode            : Lossy\r\nBits/(Pixel*Frame)          : 0.244\r\nStream size                 : 358 MiB (91%)\r\nWriting library             : XviD 73\r\n\r\nAudio\r\nID                          : 1\r\nFormat                      : AC-3\r\nFormat/Info                 : Audio Coding 3\r\nMode extension              : CM (complete main)\r\nFormat settings, Endianness : Big\r\nCodec ID                    : 2000\r\nDuration                    : 22mn 1s\r\nBit rate mode               : Constant\r\nBit rate                    : 224 Kbps\r\nChannel(s)                  : 2 channels\r\nChannel positions           : Front: L R\r\nSampling rate               : 48.0 KHz\r\nBit depth                   : 16 bits\r\nCompression mode            : Lossy\r\nStream size                 : 35.3 MiB (9%)\r\nAlignment                   : Aligned on interleaves\r\nInterleave, duration        : 32 ms (0.77 video frame)\r\nInterleave, preload duratio : 512 ms","torrent":{"xt":"urn:btih:8f92de7ad825d5a04612a18f344136f49885c9ce","amp;dn":"All+hail+king+Julien+S01E05+PL.PAL.Xvid.avi","amp;tr":["udp%3A%2F%2Ftracker.leechers-paradise.org%3A6969","udp%3A%2F%2Fzer0day.ch%3A1337","udp%3A%2F%2Fopen.demonii.com%3A1337","udp%3A%2F%2Ftracker.coppersurfer.tk%3A6969","udp%3A%2F%2Fexodus.desync.com%3A6969"],"infoHash":"8f92de7ad825d5a04612a18f344136f49885c9ce","infoHashBuffer":{"type":"Buffer","data":[143,146,222,122,216,37,213,160,70,18,161,143,52,65,54,244,152,133,201,206]},"announce":[],"urlList":[]}}